<svg id="Layer_1" data-name="Layer 1" xmlns="http://www.w3.org/2000/svg" xmlns:xlink="http://www.w3.org/1999/xlink" viewBox="0 0 20.2 15.99"><defs><style>.cls-1{fill:none;}.cls-2{clip-path:url(#clip-path);}.cls-3{fill:#fff;}</style><clipPath id="clip-path" transform="translate(0 -9.95)"><rect class="cls-1" width="20.2" height="35.9"/></clipPath></defs><title>arrow-white-right</title><g class="cls-2"><g id="Mask_Group_3" data-name="Mask Group 3"><g id="up-arrow"><g id="Group_3723" data-name="Group 3723"><path id="Path_3194" data-name="Path 3194" class="cls-3" d="M12.5,10.08l7.57,7.57a.44.44,0,0,1,.09.14.42.42,0,0,1,0,.32.4.4,0,0,1-.09.14L12.5,25.82a.42.42,0,0,1-.6-.59l6.85-6.86H.42a.42.42,0,1,1,0-.84H18.76L11.9,10.68a.42.42,0,0,1,.6-.6h0Z" transform="translate(0 -9.95)"/></g></g></g></g></svg>