<svg id="Layer_1" data-name="Layer 1" xmlns="http://www.w3.org/2000/svg" viewBox="0 0 24.33 140.64"><defs><style>.cls-1{fill:#fff;}</style></defs><title>arrow-down-long-white</title><g id="up-arrow"><g id="Group_56" data-name="Group 56"><path id="Path_74" data-name="Path 74" class="cls-1" d="M.19,129l11.49,11.49a.66.66,0,0,0,.21.14.63.63,0,0,0,.49,0,.61.61,0,0,0,.21-.14L24.07,129a.64.64,0,0,0-.84-1l-.06.06-10.4,10.4V.64a.64.64,0,1,0-1.28,0V138.46l-10.4-10.4a.64.64,0,1,0-1,.82L.2,129Z" transform="translate(0.03 0)"/></g></g></svg>