<svg id="Layer_1" data-name="Layer 1" xmlns="http://www.w3.org/2000/svg" viewBox="0 0 33.76 33.76"><defs><style>.cls-1,.cls-2{fill:#7bbb66;}.cls-1{stroke:#7bbb66;}</style></defs><title>email-green</title><g id="email"><path id="Path_4374" data-name="Path 4374" class="cls-1" d="M16.88.5A16.38,16.38,0,1,0,33.26,16.88h0A16.38,16.38,0,0,0,16.88.5Zm0,31.67A15.29,15.29,0,1,1,32.17,16.88h0A15.29,15.29,0,0,1,16.88,32.17Z" transform="translate(0 0)"/><path id="Path_4375" data-name="Path 4375" class="cls-2" d="M24.53,10.33H9.24a.55.55,0,0,0-.55.55h0v12a.55.55,0,0,0,.55.55H24.52a.55.55,0,0,0,.55-.55h0v-12A.55.55,0,0,0,24.53,10.33Zm-1.47,1.09-6.17,5.29-6.17-5.29ZM9.78,22.34V12.06l6.74,5.78a.55.55,0,0,0,.71,0L24,12.06V22.34Z" transform="translate(0 0)"/><path id="Path_4376" data-name="Path 4376" class="cls-2" d="M24.53,10.33H9.24a.55.55,0,0,0-.55.55h0v12a.55.55,0,0,0,.55.55H24.52a.55.55,0,0,0,.55-.55h0v-12A.55.55,0,0,0,24.53,10.33Zm-1.47,1.09-6.17,5.29-6.17-5.29ZM9.78,22.34V12.06l6.74,5.78a.55.55,0,0,0,.71,0L24,12.06V22.34Z" transform="translate(0 0)"/></g></svg>