<svg id="facebook" xmlns="http://www.w3.org/2000/svg" viewBox="0 0 32.48 32.48"><defs><style>.cls-1{fill:#7bbb66;}</style></defs><title>facebook-green</title><path id="Path_4372" data-name="Path 4372" class="cls-1" d="M16.24,0A16.24,16.24,0,1,0,32.48,16.24,16.24,16.24,0,0,0,16.24,0Zm0,30.62A14.38,14.38,0,1,1,30.62,16.24h0A14.4,14.4,0,0,1,16.24,30.62Z" transform="translate(0)"/><path id="Path_4373" data-name="Path 4373" class="cls-1" d="M20,7.43H17.8a3.27,3.27,0,0,0-3.27,3.27v2.48H12.48a.93.93,0,1,0,0,1.86h2.05v8.6a.93.93,0,1,0,1.86,0V15h3.17a.93.93,0,0,0,0-1.86H16.39V10.69A1.41,1.41,0,0,1,17.8,9.28H20a.93.93,0,0,0,0-1.86Z" transform="translate(0)"/></svg>