<svg id="instagram" xmlns="http://www.w3.org/2000/svg" width="54.462" height="54.462" viewBox="0 0 54.462 54.462">
  <g id="Group_154" data-name="Group 154">
    <g id="Group_153" data-name="Group 153">
      <path id="Path_168" data-name="Path 168" d="M38.642,0H15.82A15.838,15.838,0,0,0,0,15.82V38.642a15.838,15.838,0,0,0,15.82,15.82H38.642a15.838,15.838,0,0,0,15.82-15.82V15.82A15.838,15.838,0,0,0,38.642,0ZM50.207,38.642A11.579,11.579,0,0,1,38.642,50.207H15.82A11.579,11.579,0,0,1,4.255,38.642V15.82A11.579,11.579,0,0,1,15.82,4.255H38.642A11.579,11.579,0,0,1,50.207,15.82Z" fill="#fff"/>
    </g>
  </g>
  <g id="Group_156" data-name="Group 156" transform="translate(12.552 12.552)">
    <g id="Group_155" data-name="Group 155">
      <path id="Path_169" data-name="Path 169" d="M132.679,118a14.679,14.679,0,1,0,14.679,14.679A14.7,14.7,0,0,0,132.679,118Zm0,25.1A10.424,10.424,0,1,1,143.1,132.679,10.436,10.436,0,0,1,132.679,143.1Z" transform="translate(-118 -118)" fill="#fff"/>
    </g>
  </g>
  <g id="Group_158" data-name="Group 158" transform="translate(39.136 10.56)">
    <g id="Group_157" data-name="Group 157" transform="translate(0 0)">
      <circle id="Ellipse_1" data-name="Ellipse 1" cx="2.446" cy="2.446" r="2.446" fill="#fff"/>
    </g>
  </g>
</svg>
