<svg id="Layer_1" data-name="Layer 1" xmlns="http://www.w3.org/2000/svg" viewBox="0 0 45.92 45.98"><defs><style>.cls-1{fill:#6db455;}</style></defs><title>phone-green</title><g id="telephone"><path id="Path_4719" data-name="Path 4719" class="cls-1" d="M20.78,34.86a1,1,0,1,0,1.48,0h0A1,1,0,0,0,20.78,34.86Z" transform="translate(0 0)"/><path id="Path_4720" data-name="Path 4720" class="cls-1" d="M43.9,33.49l-6.82-5.8-.1-.07a4.46,4.46,0,0,0-5.58.61l-3.72,3.72a.9.9,0,0,1-1,.2,24.36,24.36,0,0,1-10.25-7.77,18.08,18.08,0,0,1-2.8-5,.89.89,0,0,0-.05-.18.89.89,0,0,1,.2-1l3.72-3.72a4.46,4.46,0,0,0,.61-5.59l0,0L13.18,2.06a4.49,4.49,0,0,0-6.95-.74l-.74.75h0L2.83,4.72C-.34,7.89-.86,12.65,1.33,18.49,3.2,23.49,7,29,11.9,33.91s10.68,8.88,15.84,10.76,10.53,2.09,14.37-1.75l2.51-2.51a4.49,4.49,0,0,0-.71-6.93ZM36,29.1l6.81,5.8.1.07a2.69,2.69,0,0,1,.46,4.18l-.19.19-11.62-8.7,1.13-1.14a2.68,2.68,0,0,1,3.3-.4ZM11.68,3l0,0,4.92,6.84a2.68,2.68,0,0,1-.38,3.33l-1.1,1.1L7.29,2.8l.21-.21A2.69,2.69,0,0,1,11.68,3ZM28.35,43C23.43,41.18,18,37.51,13.17,32.64S4.8,22.63,3,17.86C1.67,14.28.77,9.32,4.1,6L6,4.09l7.86,11.56L12.53,17a2.68,2.68,0,0,0-.61,2.86,19.94,19.94,0,0,0,2.9,5.36A26.34,26.34,0,0,0,26,33.8,2.69,2.69,0,0,0,29,33.22l1.3-1.3,11.62,8.7-1,1c-3.57,3.57-8.76,2.69-12.49,1.33Z" transform="translate(0 0)"/><path id="Path_4721" data-name="Path 4721" class="cls-1" d="M20.54,33.31c-1.11-1-3-2.64-4-3.68A68.89,68.89,0,0,1,9.9,21.78,1,1,0,0,0,8.18,23h0A71,71,0,0,0,15,31.09c1.06,1.1,3,2.78,4.15,3.79a1,1,0,1,0,1.38-1.58Z" transform="translate(0 0)"/></g></svg>