<svg id="shipped" xmlns="http://www.w3.org/2000/svg" viewBox="0 0 65.74 41.5"><defs><style>.cls-1{fill:#fff;}</style></defs><title>truck-white</title><g id="Group_4938" data-name="Group 4938"><g id="Group_4937" data-name="Group 4937"><path id="Path_4687" data-name="Path 4687" class="cls-1" d="M4.6,17.63l1.7-6.81a1,1,0,0,1-.82-1V8.71A4.33,4.33,0,0,1,9.81,4.39h7.75V2.13A2.13,2.13,0,0,1,19.69,0H59.22a2.13,2.13,0,0,1,2.13,2.13V20.79a1,1,0,1,1-2.06,0V2.13a.07.07,0,0,0-.07-.07H19.69a.07.07,0,0,0-.07.07h0V20.79a1,1,0,1,1-2.06,0h0V19.63H5.42A3.37,3.37,0,0,0,2.22,22h3.2a1,1,0,0,1,1,1v2.2a3.23,3.23,0,0,1-3.22,3.22H2.06v4.53H4.75a6.52,6.52,0,0,1,12.32,0h.5V25.18a1,1,0,1,1,2.06,0h0v7.75H41a6.52,6.52,0,0,1,12.32,0h5.92a.07.07,0,0,0,.07-.07h0V30.61H54.83a1,1,0,0,1,0-2.06h9.88a1,1,0,1,1,0,2.06H61.35v2.26A2.13,2.13,0,0,1,59.22,35H53.66v.07a6.52,6.52,0,0,1-13,0V35H17.42v.07a6.52,6.52,0,0,1-13,0V35H1a1,1,0,0,1-1-1H0V23A5.43,5.43,0,0,1,4.6,17.63Zm13-11.18H9.81A2.27,2.27,0,0,0,7.55,8.71v.07h10Zm0,11.12V10.84H8.42L6.74,17.56Zm29.58,22a4.46,4.46,0,1,0-4.46-4.46,4.46,4.46,0,0,0,4.46,4.46Zm-36.23,0a4.46,4.46,0,1,0-4.46-4.46,4.46,4.46,0,0,0,4.46,4.46ZM2.06,26.35H3.22a1.17,1.17,0,0,0,1.17-1.17V24H2.06v2.33Z" transform="translate(0 0)"/></g></g><g id="Group_4940" data-name="Group 4940"><g id="Group_4939" data-name="Group 4939"><path id="Path_4688" data-name="Path 4688" class="cls-1" d="M46.91,30.94a2.62,2.62,0,1,1-2.62,2.62h0A2.62,2.62,0,0,1,46.91,30.94Z" transform="translate(0 0)"/></g></g><g id="Group_4942" data-name="Group 4942"><g id="Group_4941" data-name="Group 4941"><path id="Path_4689" data-name="Path 4689" class="cls-1" d="M13.43,30.94a2.62,2.62,0,1,1-2.62,2.62h0A2.62,2.62,0,0,1,13.43,30.94Z" transform="translate(0 0)"/></g></g><g id="Group_4944" data-name="Group 4944"><g id="Group_4943" data-name="Group 4943"><path id="Path_4690" data-name="Path 4690" class="cls-1" d="M21.39,28.2H40.32a1.27,1.27,0,0,1,0,2.53H21.39a1.27,1.27,0,0,1,0-2.53Z" transform="translate(0 0)"/></g></g><g id="Group_4946" data-name="Group 4946"><g id="Group_4945" data-name="Group 4945"><path id="Path_4691" data-name="Path 4691" class="cls-1" d="M45.55,23.86H61.77a1.27,1.27,0,0,1,0,2.53H45.55a1.27,1.27,0,0,1,0-2.53Z" transform="translate(0 0)"/></g></g><g id="Group_4948" data-name="Group 4948"><g id="Group_4947" data-name="Group 4947"><path id="Path_4692" data-name="Path 4692" class="cls-1" d="M44.5,9a.81.81,0,0,0-1.15,0h0l-7.21,7.21L32.4,12.48a.81.81,0,0,0-1.15,1.15l4.32,4.32a.81.81,0,0,0,1.15,0h0l7.78-7.78A.81.81,0,0,0,44.5,9Z" transform="translate(0 0)"/></g></g></svg>