<svg id="Layer_1" data-name="Layer 1" xmlns="http://www.w3.org/2000/svg" viewBox="0 0 69.56 44.01"><defs><style>.cls-1{fill:#fff;}</style></defs><title>truck-white-inv</title><g id="shipped"><g id="Group_4938" data-name="Group 4938"><g id="Group_4937" data-name="Group 4937"><path id="Path_4687" data-name="Path 4687" class="cls-1" d="M64.69,18.65l-1.8-7.21a1.09,1.09,0,0,0,.86-1.07V9.22a4.58,4.58,0,0,0-4.57-4.57H51V2.25A2.25,2.25,0,0,0,48.73,0H6.9A2.25,2.25,0,0,0,4.65,2.25V22a1.09,1.09,0,0,0,2.18,0V2.25a.07.07,0,0,1,.07-.07H48.72a.07.07,0,0,1,.07.07V22A1.09,1.09,0,0,0,51,22V20.77H63.82a3.56,3.56,0,0,1,3.38,2.47H63.82a1.09,1.09,0,0,0-1.09,1.09v2.32a3.42,3.42,0,0,0,3.41,3.41h1.23v4.79H64.53a6.9,6.9,0,0,0-13,0H51v-8.2a1.09,1.09,0,0,0-2.18,0v8.2H26.2a6.9,6.9,0,0,0-13,0H6.9a.07.07,0,0,1-.07-.07v-2.4h4.72a1.09,1.09,0,1,0,0-2.18H1.09a1.09,1.09,0,1,0,0,2.18H4.65v2.4A2.25,2.25,0,0,0,6.9,37h5.88v.07a6.9,6.9,0,0,0,13.8,0V37H51.12v.07a6.9,6.9,0,0,0,13.8,0V37h3.56a1.09,1.09,0,0,0,1.08-1.09V24.32A5.74,5.74,0,0,0,64.69,18.65ZM51,6.83h8.2a2.4,2.4,0,0,1,2.4,2.4h0V9.3H51Zm0,11.76V11.47h9.68l1.78,7.12ZM19.68,41.82A4.72,4.72,0,1,1,24.4,37.1,4.72,4.72,0,0,1,19.68,41.82Zm38.34,0a4.72,4.72,0,1,1,4.72-4.72A4.72,4.72,0,0,1,58,41.82Zm9.37-13.94H66.15a1.24,1.24,0,0,1-1.23-1.23V25.41h2.47v2.47Z" transform="translate(0 0)"/></g></g><g id="Group_4940" data-name="Group 4940"><g id="Group_4939" data-name="Group 4939"><path id="Path_4688" data-name="Path 4688" class="cls-1" d="M19.94,32.54a2.82,2.82,0,1,0,2.82,2.82A2.82,2.82,0,0,0,19.94,32.54Z" transform="translate(0 0)"/></g></g><g id="Group_4942" data-name="Group 4942"><g id="Group_4941" data-name="Group 4941"><path id="Path_4689" data-name="Path 4689" class="cls-1" d="M55.09,32.54a2.82,2.82,0,1,0,2.82,2.82A2.82,2.82,0,0,0,55.09,32.54Z" transform="translate(0 0)"/></g></g><g id="Group_4944" data-name="Group 4944"><g id="Group_4943" data-name="Group 4943"><path id="Path_4690" data-name="Path 4690" class="cls-1" d="M47.08,29.81H26.7a1.37,1.37,0,1,0,0,2.73H47.08a1.37,1.37,0,1,0,0-2.73Z" transform="translate(0 0)"/></g></g><g id="Group_4946" data-name="Group 4946"><g id="Group_4945" data-name="Group 4945"><path id="Path_4691" data-name="Path 4691" class="cls-1" d="M21.75,25.22H4.28a1.37,1.37,0,0,0,0,2.73H21.75a1.37,1.37,0,0,0,0-2.73Z" transform="translate(0 0)"/></g></g><g id="Group_4948" data-name="Group 4948"><g id="Group_4947" data-name="Group 4947"><path id="Path_4692" data-name="Path 4692" class="cls-1" d="M36.63,9.5a.87.87,0,0,0-1.23,0l-7.76,7.76-4-4a.87.87,0,1,0-1.27,1.2l0,0L27,19.11a.87.87,0,0,0,1.23,0l8.38-8.38A.87.87,0,0,0,36.63,9.5Z" transform="translate(0 0)"/></g></g></g></svg>