<svg id="whatsapp" xmlns="http://www.w3.org/2000/svg" viewBox="0 0 32.48 32.42"><defs><style>.cls-1{fill:#7bbb66;}</style></defs><title>whatsapp-green</title><path id="Path_175" data-name="Path 175" class="cls-1" d="M7.86,30.16a16.12,16.12,0,0,0,8.33,2.31A16.15,16.15,0,1,0,2.32,24.62L0,32.48ZM1.91,16.23A14.26,14.26,0,1,1,8.51,28.32l-.37-.23L2.81,29.66l1.57-5.33L4.15,24a14.33,14.33,0,0,1-2.24-7.74Z" transform="translate(0 -0.06)"/><path id="Path_176" data-name="Path 176" class="cls-1" d="M7.9,13.24a14.34,14.34,0,0,0,11.5,11.5c1.89.36,4.66.41,6-.94l.76-.75a2,2,0,0,0,0-2.86h0l-3-3a2,2,0,0,0-2.86,0h0l-.76.75a1.34,1.34,0,0,1-1.8,0l-3-3.14h0a1.19,1.19,0,0,1,0-1.68l.76-.75a2,2,0,0,0,0-2.85h0l-3-3a2,2,0,0,0-2.86,0l-.75.75h0c-1.08,1.08-1.44,3.39-.94,6Zm2.29-4.67c.79-.78.75-.79.84-.79a.12.12,0,0,1,.08,0c3.18,3.2,3.06,3,3.06,3.1a.11.11,0,0,1,0,.08l-.75.75a3.09,3.09,0,0,0,0,4.36l3,3.14h0a3.24,3.24,0,0,0,4.49,0l.76-.75a.12.12,0,0,1,.16,0c3.18,3.2,3.06,3,3.06,3.1a.11.11,0,0,1,0,.08l-.76.75c-.52.52-2.17.83-4.32.42a12.44,12.44,0,0,1-10-10c-.41-2.15-.1-3.8.42-4.32Z" transform="translate(0 -0.06)"/></svg>