<svg id="whatsapp_1_" data-name="whatsapp (1)" xmlns="http://www.w3.org/2000/svg" width="55.559" height="55.559" viewBox="0 0 55.559 55.559">
  <path id="Path_175" data-name="Path 175" d="M13.438,51.595A27.576,27.576,0,0,0,27.682,55.54,27.922,27.922,0,0,0,55.559,27.77,27.77,27.77,0,1,0,3.965,42.122L0,55.56ZM3.275,27.77A24.4,24.4,0,1,1,14.553,48.457l-.626-.4L4.814,50.747,7.5,41.632l-.4-.625A24.512,24.512,0,0,1,3.275,27.77Zm0,0" transform="translate(0 -0.001)" fill="#fff"/>
  <path id="Path_176" data-name="Path 176" d="M121.507,105.263a24.533,24.533,0,0,0,19.676,19.676c3.233.615,7.976.708,10.294-1.61l1.292-1.292a3.454,3.454,0,0,0,0-4.885l-5.168-5.168a3.455,3.455,0,0,0-4.886,0l-1.292,1.292a2.3,2.3,0,0,1-3.074.01l-5.155-5.371-.023-.024a2.03,2.03,0,0,1,0-2.868l1.292-1.292a3.452,3.452,0,0,0,0-4.886l-5.168-5.168a3.459,3.459,0,0,0-4.885,0l-1.292,1.292h0c-1.85,1.851-2.467,5.8-1.61,10.3Zm3.911-7.994c1.356-1.325,1.284-1.351,1.434-1.351a.2.2,0,0,1,.142.059c5.446,5.475,5.227,5.154,5.227,5.31a.2.2,0,0,1-.058.142l-1.292,1.292a5.279,5.279,0,0,0-.013,7.456l5.158,5.375.024.024a5.551,5.551,0,0,0,7.686,0l1.292-1.292a.2.2,0,0,1,.283,0c5.446,5.475,5.227,5.153,5.227,5.31a.2.2,0,0,1-.059.142l-1.292,1.292c-.885.885-3.706,1.415-7.385.715A21.279,21.279,0,0,1,124.7,104.654c-.7-3.679-.171-6.5.714-7.385Zm0,0" transform="translate(-107.983 -82.61)" fill="#fff"/>
</svg>
